<?xml version="1.0" encoding="UTF-8" standalone="no"?>
<!-- Created with Inkscape (http://www.inkscape.org/) -->

<svg
   width="2048"
   height="2048"
   viewBox="0 0 541.86665 541.86668"
   version="1.1"
   id="svg5"
   inkscape:version="1.1 (c68e22c387, 2021-05-23)"
   sodipodi:docname="icon.svg"
   inkscape:export-filename="C:\Users\HP\OneDrive\Images\icohuin.png"
   inkscape:export-xdpi="96"
   inkscape:export-ydpi="96"
   xmlns:inkscape="http://www.inkscape.org/namespaces/inkscape"
   xmlns:sodipodi="http://sodipodi.sourceforge.net/DTD/sodipodi-0.dtd"
   xmlns="http://www.w3.org/2000/svg"
   xmlns:svg="http://www.w3.org/2000/svg">
  <sodipodi:namedview
     id="namedview7"
     pagecolor="#505050"
     bordercolor="#eeeeee"
     borderopacity="1"
     inkscape:pageshadow="0"
     inkscape:pageopacity="0"
     inkscape:pagecheckerboard="0"
     inkscape:document-units="px"
     showgrid="true"
     units="px"
     inkscape:zoom="0.22392792"
     inkscape:cx="1011.4862"
     inkscape:cy="1038.2805"
     inkscape:window-width="1366"
     inkscape:window-height="705"
     inkscape:window-x="-8"
     inkscape:window-y="-8"
     inkscape:window-maximized="1"
     inkscape:current-layer="layer1">
    <inkscape:grid
       type="axonomgrid"
       id="grid824"
       units="px"
       empspacing="128"
       spacingy="0.26458333"
       originx="270.93333"
       originy="270.93334" />
  </sodipodi:namedview>
  <defs
     id="defs2" />
  <g
     inkscape:label="Calque 1"
     inkscape:groupmode="layer"
     id="layer1">
    <path
       id="path1294"
       style="fill:#404040;fill-opacity:1;stroke:none;stroke-width:0.24902px;stroke-linecap:butt;stroke-linejoin:miter;stroke-opacity:1"
       d="M 270.93333,15.937033 50.09993,143.43518 h 220.8334 z m 0,127.498147 v 127.49815 l 220.8334,-127.49815 z m 220.8334,0 -110.41694,191.24722 110.41694,63.74908 z M 381.34979,334.6824 270.93333,270.93333 v 254.9963 z M 270.93333,525.92963 160.51687,334.6824 50.09993,398.43148 Z M 160.51687,334.6824 270.93333,270.93333 50.09993,143.43518 Z" />
    <path
       id="path1294-8"
       style="fill:#00b5ff;fill-opacity:1;stroke:none;stroke-width:0.24902px;stroke-linecap:butt;stroke-linejoin:miter;stroke-opacity:1"
       d="M 270.93332,15.937033 491.76673,143.43518 H 270.93332 Z m 0,127.498147 V 270.93333 L 50.09993,143.43518 Z m -220.83339,0 L 160.51686,334.6824 50.09993,398.43148 Z M 160.51686,334.6824 270.93332,270.93333 v 254.9963 z M 270.93332,525.92963 381.34979,334.6824 491.76673,398.43148 Z M 381.34979,334.6824 270.93332,270.93333 491.76673,143.43518 Z" />
    <path
       id="path1094"
       style="fill:none;stroke:#000000;stroke-width:31.8746;stroke-linecap:round;stroke-linejoin:round;stroke-miterlimit:4;stroke-dasharray:none;stroke-opacity:1"
       d="M 50.100062,143.43519 H 491.7666 L 270.93333,525.92963 Z m 0,0 L 491.7666,398.43148 V 143.43519 L 50.100062,398.43148 270.93333,525.92963 V 15.937038 Z M 270.93333,15.937038 50.100062,143.43519 V 398.43148 L 270.93333,525.92963 491.7666,398.43148 V 143.43519 Z" />
  </g>
</svg>
