<?xml version="1.0" encoding="UTF-8" standalone="no"?>
<!-- Created with Inkscape (http://www.inkscape.org/) -->

<svg
   width="2048"
   height="2048"
   viewBox="0 0 541.86665 541.86666"
   version="1.1"
   id="svg5"
   xml:space="preserve"
   inkscape:version="1.2 (dc2aedaf03, 2022-05-15)"
   sodipodi:docname="Futurist Quarkism Flag.svg"
   inkscape:export-filename="Futurist Quarkism Flag 2.png"
   inkscape:export-xdpi="96"
   inkscape:export-ydpi="96"
   xmlns:inkscape="http://www.inkscape.org/namespaces/inkscape"
   xmlns:sodipodi="http://sodipodi.sourceforge.net/DTD/sodipodi-0.dtd"
   xmlns:xlink="http://www.w3.org/1999/xlink"
   xmlns="http://www.w3.org/2000/svg"
   xmlns:svg="http://www.w3.org/2000/svg"><sodipodi:namedview
     id="namedview7"
     pagecolor="#505050"
     bordercolor="#eeeeee"
     borderopacity="1"
     inkscape:showpageshadow="0"
     inkscape:pageopacity="0"
     inkscape:pagecheckerboard="0"
     inkscape:deskcolor="#505050"
     inkscape:document-units="px"
     showgrid="true"
     inkscape:zoom="0.16076602"
     inkscape:cx="1041.8868"
     inkscape:cy="1063.6576"
     inkscape:window-width="1366"
     inkscape:window-height="705"
     inkscape:window-x="-8"
     inkscape:window-y="-8"
     inkscape:window-maximized="1"
     inkscape:current-layer="layer1"><inkscape:grid
       type="axonomgrid"
       id="grid132"
       units="px"
       spacingy="0.26458333"
       empspacing="128"
       enabled="false"
       snapvisiblegridlinesonly="true"
       originx="270.93333"
       originy="270.93333" /></sodipodi:namedview><defs
     id="defs2"><linearGradient
       inkscape:collect="always"
       id="linearGradient987"><stop
         style="stop-color:#00e0ff;stop-opacity:1;"
         offset="0"
         id="stop983" /><stop
         style="stop-color:#0080c0;stop-opacity:1;"
         offset="1"
         id="stop985" /></linearGradient><linearGradient
       inkscape:collect="always"
       xlink:href="#linearGradient987"
       id="linearGradient989"
       x1="0"
       y1="0"
       x2="541.86664"
       y2="541.86664"
       gradientUnits="userSpaceOnUse" /></defs><g
     inkscape:label="Calque 1"
     inkscape:groupmode="layer"
     id="layer1"><path
       style="fill:#000000;fill-opacity:1;stroke-width:8.46667;stroke-linecap:round;stroke-linejoin:round"
       d="M 0,0 V 541.86666 H 541.86666 V 0 Z"
       id="path1031" /><path
       id="path190-8-7-7"
       style="fill:url(#linearGradient989);fill-opacity:1;stroke-width:8.46667;stroke-linecap:round;stroke-linejoin:round"
       d="M 0 0 L 0 541.86666 L 541.86666 541.86666 L 541.86666 0 L 0 0 z M 270.93333 33.866666 A 237.06667 237.06667 0 0 1 507.99999 270.93333 A 237.06667 237.06667 0 0 1 270.93333 507.99999 A 237.06667 237.06667 0 0 1 33.866666 270.93333 A 237.06667 237.06667 0 0 1 270.93333 33.866666 z M 270.93333 67.733332 L 195.51519 111.27641 L 220.65423 125.79025 L 270.93333 96.76205 L 321.21243 125.78974 L 346.35198 111.27641 L 270.93333 67.733332 z M 195.51519 111.27641 L 195.51468 111.27641 L 195.51468 169.33333 L 145.23609 198.36205 L 145.23661 198.36256 L 145.23609 227.39077 L 170.37616 241.90461 L 170.37564 212.87641 L 220.65423 183.84821 L 220.65474 183.84769 L 220.65423 183.84717 L 220.65423 125.79077 L 195.51519 111.27641 z M 170.37564 125.79025 L 94.956993 169.33333 L 94.956993 256.41897 L 94.957509 256.41897 L 145.23609 285.44769 L 145.23609 343.50461 L 170.37564 358.01897 L 195.51519 343.50461 L 170.37564 328.99025 L 170.37564 270.93384 L 170.37564 270.93333 L 170.37513 270.93333 L 120.09706 241.90461 L 120.09654 241.90461 L 120.09654 183.84769 L 170.37564 154.81897 L 170.37564 125.79025 z M 270.93333 125.79025 L 245.79378 140.30461 L 245.79378 169.33281 L 270.93333 154.81897 L 270.93333 154.81949 L 321.21243 183.84769 L 321.21243 183.84666 L 371.49101 154.81897 L 371.49101 125.79025 L 321.21191 154.81897 L 270.93333 125.79077 L 270.93333 125.79025 z M 371.49153 125.79077 L 371.49153 154.81949 L 421.77011 183.84769 L 421.77011 241.90513 L 446.90966 256.41949 L 446.90966 169.33333 L 371.49153 125.79077 z M 270.93384 183.84769 L 195.51519 227.39025 L 220.65423 241.90461 L 270.93384 212.87641 L 321.21243 241.90461 L 321.21191 299.96153 L 270.93333 328.99025 L 220.65474 299.96205 L 220.65474 241.90513 L 220.65423 241.90461 L 195.51519 227.39077 L 195.51519 314.47589 L 270.93333 358.01948 L 270.93333 358.01897 L 346.35146 314.47589 L 346.35198 227.39025 L 270.93384 183.84769 z M 371.49153 183.84769 L 346.35198 198.36256 L 371.49101 212.87589 L 371.49101 270.93281 L 371.49153 270.93281 L 421.77063 299.96153 L 421.77011 358.01845 L 371.49153 387.04768 L 371.49101 416.07589 L 446.90966 372.53281 L 446.90966 285.44769 L 446.90966 285.44717 L 396.63108 256.41845 L 396.63056 256.41845 L 396.63056 198.36205 L 396.63056 198.36153 L 396.63005 198.36153 L 371.49153 183.84769 z M 270.93333 241.90461 L 245.79378 256.41897 L 245.79429 256.41949 L 245.79429 285.44769 L 270.93384 299.96205 L 270.93384 299.96101 L 296.07288 285.44717 L 296.07288 256.41897 L 296.07288 256.41845 L 296.07236 256.41845 L 270.93333 241.90461 z M 94.957509 285.44769 L 94.957509 372.53384 L 170.37564 416.0764 L 220.65474 387.04768 L 270.93384 416.0764 L 270.93384 416.07485 L 296.07288 401.56153 L 296.07236 372.53281 L 270.93333 387.04717 L 220.65474 358.01897 L 170.37564 387.04768 L 170.37564 387.0482 L 120.09706 358.01948 L 120.09603 299.96205 L 94.957509 285.44769 z M 371.49153 299.96205 L 371.49153 328.99025 L 321.21243 358.01845 L 321.21294 358.01897 L 346.35198 372.53281 L 396.63056 343.50461 L 396.63108 343.50461 L 396.63108 314.47641 L 371.49153 299.96205 z M 321.21294 358.01897 L 321.21243 416.07589 L 270.93384 445.1046 L 220.65474 416.07589 L 195.51519 430.59025 L 270.93384 474.13332 L 346.35198 430.59025 L 346.35198 372.53333 L 321.21294 358.01897 z " /></g></svg>
