<svg xmlns="http://www.w3.org/2000/svg" width="256" height="256" viewBox="0 0 67.73333 67.733335">
  <path fill="gray" fill-rule="evenodd" d="M.5446696 39.79292a33.866668 33.866668 0 0 0 4.5247883 11.853539H62.663874a33.866668 33.866668 0 0 0 4.524787-11.853539Zm4.5247883-23.706047a33.866668 33.866668 0 0 0-4.5247883 11.85354H67.209336a33.866668 33.866668 0 0 0-4.521692-11.85354z" style="font-variation-settings:normal;-inkscape-stroke:none"/>
  <path fill="purple" fill-rule="evenodd" d="M5.0694579 51.646459a33.866668 33.866668 0 0 0 12.4385171 11.85354h32.717382a33.866668 33.866668 0 0 0 12.438517-11.85354ZM17.507975 4.2333333A33.866668 33.866668 0 0 0 5.0694579 16.086873H62.687644A33.866668 33.866668 0 0 0 50.257397 4.2333333Z" style="font-variation-settings:normal;-inkscape-stroke:none"/>
  <path fill="#fff" fill-rule="evenodd" d="M.5446696 27.940413A33.866668 33.866668 0 0 0 0 33.866666a33.866668 33.866668 0 0 0 .5446696 5.926254H67.188661a33.866668 33.866668 0 0 0 .544671-5.926254 33.866668 33.866668 0 0 0-.523996-5.926253z" style="font-variation-settings:normal;-inkscape-stroke:none"/>
  <path fill-opacity=".501961" fill-rule="evenodd" d="M33.866666 0A33.866668 33.866668 0 0 0 0 33.866666a33.866668 33.866668 0 0 0 33.866666 33.866666 33.866668 33.866668 0 0 0 33.866666-33.866666A33.866668 33.866668 0 0 0 33.866666 0Zm0 8.4666666a25.400001 25.400001 0 0 1 25.4 25.3999994 25.400001 25.400001 0 0 1-25.4 25.4 25.400001 25.400001 0 0 1-25.3999994-25.4A25.400001 25.400001 0 0 1 33.866666 8.4666666Z" style="font-variation-settings:normal;-inkscape-stroke:none"/>
  <path fill="#00b5ff" stroke="#000" stroke-linecap="round" stroke-linejoin="round" stroke-miterlimit="0" stroke-width="2.51502" d="M33.866665 9.7240926c6.969359 4.0237614 13.938719 8.0475244 20.908079 12.0712844l.000004 24.142575c-6.96936 4.023762-13.93872 8.047524-20.908081 12.071288-6.96936-4.023764-13.938722-8.047526-20.908083-12.071288l-.000001-24.142573c6.969361-4.023762 13.93872-8.047524 20.908082-12.0712864ZM12.958584 45.937952l41.81616-24.142575m.000004 24.142575L12.958583 21.795379M33.866665 9.7240926l.000002 48.2851474M12.958584 21.795379l41.81616-.000002L33.866667 58.00924z"/>
  <path fill="#404040" fill-rule="evenodd" d="M33.866663 21.795379h20.908081L33.866663 33.866665Z"/>
  <path fill="#404040" fill-rule="evenodd" d="M12.958584 21.795379 33.866663 9.724094v12.071287zm41.81616 0-.000002 24.142571L44.3207 39.902307l10.45404-18.106928ZM44.3207 39.902307 33.866661 58.009236V33.866663z"/>
  <path fill="#404040" fill-rule="evenodd" d="m23.412623 39.902309-10.454041-18.10693.000002.000002 20.908079 12.071284z"/>
  <path fill="#404040" fill-rule="evenodd" d="M33.866661 58.009234 12.958584 45.93795l10.454041-6.035643 10.45404 18.106929Z"/>
  <path fill="none" stroke="#000" stroke-linecap="round" stroke-linejoin="round" stroke-miterlimit="0" stroke-width="2.51502" d="M33.866665 9.7240926c6.969359 4.0237614 13.938719 8.0475244 20.908079 12.0712844l.000004 24.142575c-6.96936 4.023762-13.93872 8.047524-20.908081 12.071288-6.96936-4.023764-13.938722-8.047526-20.908083-12.071288V21.795379c6.96936-4.023762 13.938719-8.047524 20.908081-12.0712864ZM12.958584 45.937952l41.81616-24.142575m.000004 24.142575L12.958584 21.795379M33.866665 9.7240926l.000002 48.2851474M12.958584 21.795379l41.81616-.000002L33.866667 58.00924z"/>
  <path fill="#00b5ff" fill-rule="evenodd" d="M33.866666 0A33.866668 33.866668 0 0 0 0 33.866666a33.866668 33.866668 0 0 0 33.866666 33.866666 33.866668 33.866668 0 0 0 33.866666-33.866666A33.866668 33.866668 0 0 0 33.866666 0Zm0 4.2333333A29.633333 29.633333 0 0 1 63.499999 33.866666a29.633333 29.633333 0 0 1-29.633333 29.633333A29.633333 29.633333 0 0 1 4.2333333 33.866666 29.633333 29.633333 0 0 1 33.866666 4.2333333Z" style="font-variation-settings:normal;-inkscape-stroke:none"/>
</svg>
