<?xml version="1.0" encoding="UTF-8" standalone="no"?>
<svg
   viewbox="0 0 650 650"
   version="1.1"
   id="svg4"
   sodipodi:docname="Pronouns Page Quark.svg"
   width="2048"
   height="2048"
   inkscape:version="1.1 (c68e22c387, 2021-05-23)"
   xmlns:inkscape="http://www.inkscape.org/namespaces/inkscape"
   xmlns:sodipodi="http://sodipodi.sourceforge.net/DTD/sodipodi-0.dtd"
   xmlns="http://www.w3.org/2000/svg"
   xmlns:svg="http://www.w3.org/2000/svg">
  <defs
     id="defs8" />
  <sodipodi:namedview
     id="namedview6"
     pagecolor="#505050"
     bordercolor="#eeeeee"
     borderopacity="1"
     inkscape:pageshadow="0"
     inkscape:pageopacity="0"
     inkscape:pagecheckerboard="0"
     showgrid="false"
     inkscape:zoom="0.23095703"
     inkscape:cx="1024"
     inkscape:cy="1024"
     inkscape:window-width="1366"
     inkscape:window-height="705"
     inkscape:window-x="-8"
     inkscape:window-y="-8"
     inkscape:window-maximized="1"
     inkscape:current-layer="svg4">
    <sodipodi:guide
       position="0,2048"
       orientation="0,2048"
       id="guide1042" />
    <sodipodi:guide
       position="2048,2048"
       orientation="2048,0"
       id="guide1044" />
    <sodipodi:guide
       position="2048,0"
       orientation="0,-2048"
       id="guide1046" />
    <sodipodi:guide
       position="0,0"
       orientation="-2048,0"
       id="guide1048" />
  </sodipodi:namedview>
  <rect
     style="font-variation-settings:normal;opacity:1;vector-effect:none;fill:#000000;fill-opacity:1;fill-rule:evenodd;stroke-width:1.01286;stroke-linecap:butt;stroke-linejoin:miter;stroke-miterlimit:4;stroke-dasharray:none;stroke-dashoffset:0;stroke-opacity:1;-inkscape-stroke:none;stop-color:#000000;stop-opacity:1"
     id="rect1040"
     width="2048"
     height="2048"
     x="0"
     y="0" />
  <path
     d="m 1215.4451,584.99094 c 3.6774,-6.53814 0.57,-11.85042 -6.9198,-11.85042 l -131.3077,0.0816 c -7.4916,0 -16.7538,5.28498 -20.5404,11.7414 L 734.94598,1129.1826 c -44.89532,73.9626 -107.55244,90.3078 -167.75796,83.007 -103.35709,-12.5316 -158.93131,-88.401 -158.93131,-189.4428 0,-101.47762 82.57138,-184.04885 184.04882,-184.04885 H 796.6224 c 7.4916,0 16.6722,-5.31225 20.3772,-11.82315 l 73.6359,-128.5835 c 3.732,-6.51091 0.6264,-11.82316 -6.8652,-11.82316 H 592.27823 c -185.41092,3e-4 -336.27853,150.84066 -336.27853,336.27866 0,89.5998 35.00629,186.2286 98.67148,249.3757 62.73893,62.2218 146.56331,85.0236 236.02695,86.8758 50.50712,0.57 189.22477,-0.57 254.25207,-116.2698 72.8185,-129.5917 370.4949,-657.73756 370.4949,-657.73756 z m 477.8839,190.94099 c -62.739,-62.22138 -146.5638,-85.02304 -236.0268,-86.87554 -50.5075,-0.5718 -189.2251,0.5724 -254.2525,116.27 -72.7915,129.53699 -370.4948,657.68311 -370.4948,657.68311 -3.6777,6.5376 -0.5718,11.85 6.9195,11.85 l 131.308,-0.084 c 7.4916,0 16.7538,-5.2848 20.5404,-11.7414 l 321.7315,-544.21892 c 44.895,-73.96258 107.5524,-90.30793 167.7577,-83.00698 103.3572,12.5316 158.931,88.40098 158.931,189.443 0,101.4774 -82.5708,184.0489 -184.0482,184.0489 h -204.3175 c -7.4916,0 -16.6722,5.3117 -20.3766,11.8229 l -73.6363,128.5837 c -3.732,6.5106 -0.6264,11.823 6.8652,11.823 h 291.4922 c 185.4108,0 336.2785,-150.8383 336.2785,-336.2767 0,-89.54542 -35.0064,-186.1736 -98.6713,-249.32122 z"
     fill="#000000"
     id="path2"
     style="stroke-width:64;fill:#c71585;fill-opacity:1;stroke:none;stroke-opacity:1;stroke-miterlimit:4;stroke-dasharray:none;stroke-linecap:round;stroke-linejoin:round;paint-order:markers stroke fill" />
</svg>
