<svg xmlns="http://www.w3.org/2000/svg" xml:space="preserve" id="svg2" width="64" height="64"><defs id="defs1"><clipPath id="clip0_730_27126"><path id="rect1" fill="#fff" d="M0 0H98V96H0z"/></clipPath></defs><style id="style1">path{fill:#000}@media (prefers-color-scheme:dark){path{fill:#fff}}</style><path id="path2" d="M 32 0 A 32 32 0 0 0 0 32 A 32 32 0 0 0 32 64 A 32 32 0 0 0 64 32 A 32 32 0 0 0 32 0 z" style="fill:#39aa4d;fill-opacity:1;stroke-width:.999999"/><path id="path1" d="M 31.949219,6 C 17.578167,6 6,17.730456 6,32.101563 6,43.374989 13.160166,52.718618 22.808594,56.222656 24.179714,56.730197 25.5,55.816269 25.5,54.445313 v -4.0625 c -0.710937,0.304687 -1.625,0.507812 -2.4375,0.507812 -3.351559,0 -5.332033,-1.828155 -6.753906,-5.230469 -0.558566,-1.371119 -1.167943,-2.18362 -2.335937,-2.335938 -0.609375,-0.0508 -0.8125,-0.304687 -0.8125,-0.609375 0,-0.609374 1.015626,-1.066405 2.03125,-1.066405 1.472682,0 2.742188,0.914038 4.0625,2.792968 1.015623,1.472629 2.082058,2.132812 3.351562,2.132812 1.269557,0 2.082059,-0.457058 3.25,-1.625 0.863307,-0.863306 1.523438,-1.625 2.132812,-2.132812 C 21.285163,42.003908 16.5625,37.179654 16.5625,30.933594 c 0,-2.53906 0.914064,-5.281252 2.4375,-7.109375 -0.660183,-1.675807 -0.55862,-5.230498 0.203125,-6.703125 2.031248,-0.253933 4.773439,0.812528 6.398438,2.285156 1.929684,-0.609374 3.960967,-0.914062 6.449219,-0.914062 2.488305,0 4.519532,0.304661 6.347656,0.863281 1.57419,-1.421874 4.36719,-2.488308 6.398437,-2.234375 0.710938,1.371065 0.812527,4.925783 0.152343,6.652344 1.624999,1.929685 2.488282,4.519533 2.488282,7.160156 0,6.24606 -4.722663,10.968778 -11.527344,11.832031 1.726561,1.117187 2.894532,3.554663 2.894532,6.347656 v 5.28125 c 0,1.523165 1.269532,2.386719 2.792968,1.777344 C 50.78908,52.667837 58,43.476551 58,32.101563 58,17.73051 46.320326,6 31.949219,6 Z" style="fill:#fff;fill-opacity:1;stroke-width:.999997"/></svg>