<svg xmlns="http://www.w3.org/2000/svg" width="511.99997" height="103.61854" viewBox="0 0 135.46666 27.415738"><defs/><path d="m 47.120062,81.791392 c -1.861605,0 -3.614023,0.362605 -5.258036,1.087906 -1.619836,0.701123 -3.046685,1.667706 -4.279692,2.900717 -1.208838,1.208834 -2.163073,2.635677 -2.864197,4.279692 -0.701122,1.644013 -1.052491,3.396433 -1.052491,5.258037 0,1.861602 0.278404,3.614022 0.834465,5.258036 0.580242,1.61984 1.450279,3.04668 2.610757,4.27969 1.184659,1.20883 2.672121,2.17542 4.461197,2.90072 1.789074,0.70112 3.904097,1.05249 6.345942,1.05249 h 12.51149 c 0.241764,0 0.447204,-0.0853 0.616444,-0.25454 0.169232,-0.16923 0.254546,-0.37468 0.254546,-0.61644 v -5.11306 c 0,-0.24177 -0.0853,-0.44721 -0.254546,-0.61644 -0.169231,-0.16924 -0.37468,-0.25345 -0.616444,-0.25345 h -1.704349 c -0.507712,0 -0.60426,-0.21778 -0.289961,-0.65296 0.628591,-0.7253 1.148367,-1.607681 1.559369,-2.647281 0.411002,-1.063775 0.616442,-2.176285 0.616442,-3.336765 0,-1.861604 -0.350263,-3.614024 -1.051386,-5.258037 -0.701122,-1.644015 -1.66881,-3.070858 -2.901823,-4.279692 -1.208832,-1.233011 -2.63457,-2.199594 -4.278585,-2.900717 -1.644013,-0.725301 -3.397538,-1.087906 -5.259142,-1.087906 z m 72.458178,0.434937 c -0.24176,0 -0.44721,0.08421 -0.61645,0.253442 -0.16923,0.169232 -0.25454,0.374674 -0.25454,0.616444 v 24.806065 c 0,0.24176 0.0853,0.4472 0.25454,0.61644 0.16923,0.16923 0.37469,0.25344 0.61645,0.25344 h 5.40301 c 0.24178,0 0.44722,-0.0842 0.61645,-0.25344 0.16923,-0.16923 0.25455,-0.37468 0.25455,-0.61644 v -5.87559 c 0,-0.24176 0.0842,-0.44721 0.25344,-0.61645 0.16923,-0.16923 0.37467,-0.25343 0.61644,-0.25343 h 0.79795 c 0.24176,0 0.49548,0.0719 0.76142,0.21691 0.26594,0.12088 0.47138,0.27806 0.61644,0.47147 0.74949,1.06377 1.49939,2.11567 2.24886,3.15526 0.77366,1.0396 1.54714,2.0668 2.3208,3.08222 0.14505,0.19341 0.3505,0.36293 0.61644,0.50799 0.29012,0.12087 0.55618,0.1815 0.79795,0.1815 h 6.74547 c 0.24176,0 0.39893,-0.10888 0.47146,-0.32648 0.0725,-0.24177 0.0355,-0.45955 -0.10956,-0.65296 -0.79783,-1.06378 -1.7038,-2.2358 -2.71922,-3.51717 -1.01542,-1.28136 -1.98311,-2.52635 -2.90182,-3.73518 -0.14505,-0.19341 -0.19335,-0.38762 -0.14499,-0.581031 0.0725,-0.217591 0.20611,-0.398345 0.39952,-0.543404 0.58024,-0.36265 1.10002,-0.810564 1.55938,-1.342454 0.45935,-0.556061 0.85789,-1.172381 1.19636,-1.849331 0.33848,-0.67695 0.59219,-1.389819 0.76143,-2.139292 0.19341,-0.773653 0.28995,-1.547141 0.28995,-2.320794 0,-1.40225 -0.24136,-2.684272 -0.72489,-3.844753 -0.45936,-1.160482 -1.11161,-2.162995 -1.9578,-3.009179 -0.822,-0.846183 -1.82562,-1.499536 -3.01028,-1.958896 -1.18466,-0.483533 -2.47792,-0.724905 -3.88017,-0.724905 z m 26.18283,0 c -0.26595,0 -0.48374,0.08421 -0.65297,0.253442 -0.14506,0.169232 -0.21692,0.374674 -0.21692,0.616444 v 24.806065 c 0,0.24176 0.0719,0.4472 0.21692,0.61644 0.16923,0.16923 0.38702,0.25344 0.65297,0.25344 h 5.43953 c 0.24177,0 0.44831,-0.0842 0.61755,-0.25344 0.16923,-0.16923 0.25344,-0.37468 0.25344,-0.61644 v -7.43496 c 0,-0.24177 0.0483,-0.38659 0.14499,-0.43494 0.12088,-0.04834 0.26571,0.0246 0.43494,0.21802 l 7.03543,7.8688 c 0.14506,0.19341 0.3505,0.35058 0.61645,0.47146 0.29012,0.12087 0.56852,0.1815 0.83447,0.1815 h 7.50689 c 0.26594,0 0.42311,-0.12124 0.47146,-0.363 0.0483,-0.24177 -0.0122,-0.45955 -0.1815,-0.65297 -0.79784,-0.822 -1.64428,-1.70438 -2.53882,-2.64728 -0.87037,-0.96707 -1.76509,-1.93365 -2.6838,-2.90071 -0.89454,-0.99125 -1.8005,-1.97018 -2.71922,-2.937247 -0.91871,-0.967063 -1.78875,-1.897721 -2.61075,-2.792255 -0.16923,-0.169232 -0.2669,-0.374681 -0.29107,-0.616445 0,-0.265941 0.073,-0.496076 0.21802,-0.689489 l 9.53773,-11.931567 c 0.14505,-0.19341 0.18099,-0.398852 0.10845,-0.616444 -0.0725,-0.241769 -0.24093,-0.361897 -0.50687,-0.361897 h -6.92698 c -0.26594,0 -0.532,0.07185 -0.79795,0.216917 -0.26594,0.120874 -0.47138,0.27805 -0.61644,0.471463 l -6.52745,8.667846 c -0.14505,0.193411 -0.26629,0.277616 -0.363,0.253437 -0.0967,-0.04834 -0.14499,-0.193175 -0.14499,-0.434942 v -8.341359 c 0,-0.241771 -0.0842,-0.447207 -0.25344,-0.616445 -0.16923,-0.169231 -0.37578,-0.253442 -0.61755,-0.253442 z m -80.145477,0.03656 c -0.241762,0 -0.447204,0.08421 -0.616442,0.253436 -0.169232,0.169232 -0.253436,0.37468 -0.253436,0.616445 v 14.687308 c 0,1.716543 0.277296,3.275862 0.833359,4.678112 0.556061,1.40224 1.341897,2.59896 2.357319,3.5902 1.015416,0.99124 2.236824,1.76473 3.663247,2.3208 1.426424,0.53188 3.009325,0.79794 4.750047,0.79794 1.740723,0 3.324736,-0.26606 4.751159,-0.79794 1.426426,-0.55607 2.647827,-1.32956 3.663248,-2.3208 1.015421,-0.99124 1.788909,-2.18796 2.320793,-3.5902 0.556068,-1.40225 0.833366,-2.961569 0.833366,-4.678112 V 83.132743 c 0,-0.241764 -0.08421,-0.447204 -0.253443,-0.616444 -0.169231,-0.169232 -0.374673,-0.253436 -0.616442,-0.253436 h -5.476057 c -0.241771,0 -0.447211,0.08421 -0.616445,0.253436 -0.169231,0.169231 -0.253442,0.37468 -0.253442,0.616444 v 14.687308 c 0,0.942887 -0.157174,1.728723 -0.471462,2.357319 -0.290121,0.60441 -0.653831,1.08826 -1.089012,1.45091 -0.435181,0.33847 -0.905577,0.57984 -1.413283,0.7249 -0.507711,0.14506 -0.967977,0.21803 -1.37898,0.21803 -0.411002,0 -0.870156,-0.073 -1.377868,-0.21803 -0.507709,-0.14505 -0.991555,-0.38643 -1.450913,-0.7249 -0.435174,-0.36265 -0.809022,-0.8465 -1.123323,-1.45091 -0.29012,-0.628596 -0.436046,-1.414432 -0.436046,-2.357319 V 83.132743 c 0,-0.241764 -0.08421,-0.447204 -0.253436,-0.616444 -0.169232,-0.169232 -0.37468,-0.253436 -0.616449,-0.253436 z m 35.068687,0 c -0.26594,0 -0.51965,0.08421 -0.76142,0.253436 -0.217585,0.145053 -0.374755,0.325813 -0.471462,0.543404 L 88.934224,107.61124 c -0.09672,0.19341 -0.132631,0.36293 -0.108452,0.50799 0.0242,0.14505 0.0837,0.26629 0.18039,0.363 0.07254,0.0967 0.181417,0.16857 0.32648,0.21692 0.120874,0.0483 0.242122,0.073 0.363009,0.073 h 6.237483 c 0.241769,0 0.471897,-0.073 0.689489,-0.21802 0.241762,-0.16923 0.410169,-0.36233 0.506878,-0.57992 l 1.01597,-2.17585 c 0.09669,-0.21759 0.253873,-0.39833 0.471465,-0.54339 0.241762,-0.16924 0.495476,-0.25455 0.761424,-0.25455 h 7.65187 c 0.24177,0 0.4719,0.0853 0.68949,0.25455 0.24177,0.14505 0.42251,0.3258 0.5434,0.54339 l 0.97945,2.17582 c 0.12087,0.21759 0.2904,0.41069 0.50799,0.57993 0.24176,0.14505 0.49547,0.21802 0.76142,0.21802 h 6.20096 c 0.38683,0 0.64054,-0.12124 0.76142,-0.363 0.14505,-0.24177 0.16975,-0.4708 0.073,-0.68839 L 106.9583,83.059692 c -0.0967,-0.217589 -0.26622,-0.398343 -0.50798,-0.543404 -0.21759,-0.169232 -0.44772,-0.253436 -0.68949,-0.253436 z m -53.564218,6.599378 c 0.870362,0 1.680881,0.16951 2.430361,0.50799 0.773653,0.338472 1.450589,0.809969 2.030832,1.414388 0.58024,0.580242 1.027054,1.269527 1.341347,2.067357 0.338471,0.773653 0.507988,1.595413 0.507988,2.465775 0,0.870362 -0.16951,1.692123 -0.507988,2.465775 -0.314293,0.773653 -0.761107,1.450596 -1.341347,2.030838 -0.580243,0.58024 -1.257179,1.05173 -2.030832,1.41438 -0.74948,0.33848 -1.559999,0.50799 -2.430361,0.50799 -0.870361,0 -1.692121,-0.16951 -2.46578,-0.50799 -0.749474,-0.36265 -1.41407,-0.83414 -1.994312,-1.41438 -0.580241,-0.580242 -1.039391,-1.257185 -1.377869,-2.030838 -0.314292,-0.773652 -0.471462,-1.595413 -0.471462,-2.465775 0,-0.870362 0.157174,-1.692122 0.471462,-2.465775 0.338478,-0.79783 0.797628,-1.487115 1.377869,-2.067357 0.580242,-0.604419 1.244838,-1.075916 1.994312,-1.414388 0.773659,-0.338478 1.595419,-0.50799 2.46578,-0.50799 z m 79.602068,0.03656 h 3.84364 c 0.50771,0 0.93094,0.10888 1.26942,0.326483 0.36264,0.19341 0.64105,0.447125 0.83446,0.761424 0.21759,0.29012 0.36241,0.604453 0.43494,0.942925 0.0967,0.314299 0.14499,0.592702 0.14499,0.83447 0,0.459354 -0.0842,0.85789 -0.25344,1.196361 -0.16923,0.338478 -0.38702,0.629228 -0.65296,0.870992 -0.26595,0.21759 -0.55559,0.385997 -0.86989,0.506877 -0.31429,0.09672 -0.61739,0.144988 -0.90751,0.144988 h -3.84364 c -0.24177,0 -0.44721,-0.08421 -0.61645,-0.253436 -0.16923,-0.169232 -0.25344,-0.37468 -0.25344,-0.616444 v -3.843648 c 0,-0.241764 0.0842,-0.447204 0.25344,-0.616445 0.16923,-0.169231 0.37468,-0.254541 0.61645,-0.254541 z m -23.53555,4.424672 c 0.12088,0 0.22978,0.108901 0.32649,0.326482 0.29012,0.701122 0.60445,1.462268 0.94293,2.284272 0.33847,0.797832 0.62812,1.499464 0.86988,2.103879 0.12087,0.217589 0.12087,0.410685 0,0.579923 -0.0967,0.145052 -0.26622,0.218022 -0.50798,0.218022 h -3.22721 c -0.26594,0 -0.4478,-0.07296 -0.5445,-0.218022 -0.0967,-0.169232 -0.0967,-0.362334 0,-0.579923 l 1.81391,-4.388151 c 0.0967,-0.217591 0.2056,-0.326482 0.32648,-0.326482 z" style="font-size:64px;line-height:1;font-family:Heavitas;-inkscape-font-specification:Heavitas;letter-spacing:0;word-spacing:0;text-orientation:upright;white-space:pre;shape-inside:url(#a);fill:#fff;fill-opacity:1;stroke-width:67.7333;stroke-linejoin:bevel;stroke-miterlimit:128;paint-order:stroke fill markers" transform="translate(-33.665646,-81.791392)"/></svg>