<svg xmlns="http://www.w3.org/2000/svg" xml:space="preserve" width="2048" height="2048" viewBox="0 0 541.86667 541.86668"><path d="M 270.93334,6.3496084 V 39.475723 C 142.88177,39.475713 39.075462,143.29319 39.075471,271.35855 c 0.232595,61.24058 24.679318,119.90252 68.003939,163.1811 l 11.61636,12.49661 71.22492,-71.23257 c 23.14844,18.07416 51.64529,27.94426 81.01266,28.05934 73.17233,0 132.49021,-59.32428 132.4902,-132.50448 -0.0144,-29.41538 -9.81528,-57.98973 -27.85819,-81.22004 l 46.63671,-46.64174 c 30.4065,35.68724 47.21922,80.97606 47.46657,127.86179 1e-5,109.77029 -88.97682,198.7567 -198.7353,198.75669 v -33.12612 l -86.05516,49.68918 86.05516,49.68917 v -33.12612 c 128.05156,1e-5 231.85787,-103.81747 231.85786,-231.88281 1.1e-4,-61.49919 -24.42764,-120.47957 -67.9094,-163.96611 L 423.17092,95.680844 352.14464,166.71477 c -23.22789,-18.04468 -51.79915,-27.84646 -81.2113,-27.86071 -73.17234,-1e-5 -132.49023,59.32427 -132.49022,132.50449 0.11506,29.37053 9.9841,57.87046 28.05632,81.0214 l -46.88233,46.88788 C 89.217272,363.56146 72.42093,318.25465 72.198028,271.35855 72.198018,161.58825 161.17486,72.601844 270.93334,72.601853 V 105.72796 L 356.9885,56.038798 Z m 0,165.6305716 c 20.6322,8.8e-4 40.75249,6.42478 57.56873,18.38022 L 189.99696,328.87989 c -11.96241,-16.79683 -18.40379,-36.89944 -18.43129,-57.52134 -1e-5,-54.88516 44.48842,-99.37838 99.36767,-99.37837 z m 80.98943,41.80342 c 11.95416,16.81806 18.37736,36.94052 18.37823,57.57495 1e-5,54.88515 -44.48842,99.37836 -99.36767,99.37835 -20.61969,-0.0275 -40.72013,-6.46957 -57.51515,-18.43328 z" style="display:inline;fill:#fff;fill-opacity:1;stroke:#fff;stroke-width:12.7;stroke-linecap:round;stroke-linejoin:round;stroke-dasharray:none;stroke-opacity:1"/></svg>