<?xml version="1.0" encoding="UTF-8" standalone="no"?>
<!-- Created with Inkscape (http://www.inkscape.org/) -->

<svg
   width="64"
   height="64"
   viewBox="0 0 16.933333 16.933333"
   version="1.1"
   id="svg5"
   inkscape:version="1.2 (dc2aedaf03, 2022-05-15)"
   sodipodi:docname="atheism.svg"
   xml:space="preserve"
   xmlns:inkscape="http://www.inkscape.org/namespaces/inkscape"
   xmlns:sodipodi="http://sodipodi.sourceforge.net/DTD/sodipodi-0.dtd"
   xmlns="http://www.w3.org/2000/svg"
   xmlns:svg="http://www.w3.org/2000/svg"><sodipodi:namedview
     id="namedview7"
     pagecolor="#505050"
     bordercolor="#eeeeee"
     borderopacity="1"
     inkscape:showpageshadow="0"
     inkscape:pageopacity="0"
     inkscape:pagecheckerboard="0"
     inkscape:deskcolor="#505050"
     inkscape:document-units="px"
     showgrid="true"
     inkscape:zoom="6.6396366"
     inkscape:cx="29.218467"
     inkscape:cy="32.080069"
     inkscape:window-width="1366"
     inkscape:window-height="705"
     inkscape:window-x="-8"
     inkscape:window-y="-8"
     inkscape:window-maximized="1"
     inkscape:current-layer="svg5"><inkscape:grid
       type="xygrid"
       id="grid3104"
       empspacing="4"
       enabled="true" /></sodipodi:namedview><defs
     id="defs2" /><path
     id="path388"
     style="fill:#4080ff;stroke-width:8.46701;stroke-linecap:round;stroke-linejoin:round;paint-order:stroke fill markers;fill-opacity:1"
     d="M 8.4666665 0 A 8.4666662 8.4666662 0 0 0 0 8.4666665 A 8.4666662 8.4666662 0 0 0 8.4666665 16.933333 A 8.4666662 8.4666662 0 0 0 16.933333 8.4666665 A 8.4666662 8.4666662 0 0 0 8.4666665 0 z " /><path
     style="fill:#ffffff;fill-opacity:1;stroke-width:0.042397"
     d="m 7.9637975,14.771547 c -1.8193276,-0.20619 -2.9073601,-1.209953 -2.8171126,-2.59893 0.025275,-0.389062 0.020775,-0.375285 1.0270425,-3.1600198 0.366165,-1.013355 0.790095,-2.1950625 0.94206,-2.6260275 0.8156401,-2.3130525 0.8793601,-2.43543 1.2679951,-2.43543 0.4160625,0 0.1545225,-0.6216301 2.7978145,6.6497773 0.429675,1.182 0.44214,1.29054 0.17604,1.533922 -0.326655,0.298778 -0.589672,0.184905 -1.045845,-0.452774 C 9.6872147,10.808975 8.9657525,10.33925 7.898435,10.1108 7.1913874,9.9594722 7.4971549,9.5788322 8.2952525,9.6168272 c 0.47085,0.022425 0.4761075,0.0237 1.4311572,0.35361 0.054,0.018675 -0.00525,-0.1827225 -0.2475972,-0.8372475 C 9.2194925,8.4319847 8.50934,6.5025797 8.4227675,6.2640272 8.3802425,6.1468022 6.3522274,11.719745 6.2874799,12.131787 6.0866899,13.409689 8.0482925,14.073762 10.122117,13.429939 14.77406,11.98574 14.886095,5.4282572 10.289052,3.6592472 5.9354974,1.9839271 1.6372998,6.6872222 3.5001349,11.087997 3.9077299,12.050915 3.2423974,11.768885 2.7245973,10.759257 0.17724487,5.7923072 6.1389499,0.20611211 11.267952,2.7540197 c 6.284881,3.1221 3.623266,12.8026653 -3.3041545,12.0175273 z"
     id="path1999" /></svg>
